<svg width="25" height="24" viewBox="0 0 25 24" fill="none" xmlns="http://www.w3.org/2000/svg">
<path fill-rule="evenodd" clip-rule="evenodd" d="M3.5 5C3.5 3.895 4.395 3 5.5 3H19.5C20.605 3 21.5 3.895 21.5 5V19C21.5 20.105 20.605 21 19.5 21H15.914V14.035H18.279L18.63 11.31H15.93V9.575C15.93 8.787 16.15 8.253 17.28 8.253H18.708V5.823C18.013 5.752 17.315 5.716 16.616 5.718C14.542 5.718 13.121 6.985 13.121 9.309V11.314H10.778V14.039H13.121V21H5.5C4.395 21 3.5 20.105 3.5 19V5Z" fill="white"/>
</svg>
