<svg width="25" height="24" viewBox="0 0 25 24" fill="none" xmlns="http://www.w3.org/2000/svg">
<path fill-rule="evenodd" clip-rule="evenodd" d="M3.5 8C3.5 5.239 5.739 3 8.5 3H16.5C19.261 3 21.5 5.239 21.5 8V16C21.5 18.761 19.261 21 16.5 21H8.5C5.739 21 3.5 18.761 3.5 16V8ZM19.5 6C19.5 5.448 19.052 5 18.5 5C17.948 5 17.5 5.448 17.5 6C17.5 6.552 17.948 7 18.5 7C19.052 7 19.5 6.552 19.5 6ZM17.5 12C17.5 9.239 15.261 7 12.5 7C9.739 7 7.5 9.239 7.5 12C7.5 14.761 9.739 17 12.5 17C15.261 17 17.5 14.761 17.5 12ZM10.3787 9.87868C10.9413 9.31607 11.7044 9 12.5 9C13.2956 9 14.0587 9.31607 14.6213 9.87868C15.1839 10.4413 15.5 11.2044 15.5 12C15.5 12.7956 15.1839 13.5587 14.6213 14.1213C14.0587 14.6839 13.2956 15 12.5 15C11.7044 15 10.9413 14.6839 10.3787 14.1213C9.81607 13.5587 9.5 12.7956 9.5 12C9.5 11.2044 9.81607 10.4413 10.3787 9.87868Z" fill="#232946"/>
</svg>
