<svg width="25" height="24" viewBox="0 0 25 24" fill="none" xmlns="http://www.w3.org/2000/svg">
<path fill-rule="evenodd" clip-rule="evenodd" d="M3.5 7C3.5 4.791 5.291 3 7.5 3H17.5C19.709 3 21.5 4.791 21.5 7V17C21.5 19.209 19.709 21 17.5 21H7.5C5.291 21 3.5 19.209 3.5 17V7ZM10.521 16.886C15.064 16.886 17.55 13.114 17.55 9.857V9.514C17.979 9.171 18.407 8.743 18.752 8.227C18.238 8.485 17.809 8.57 17.295 8.656C17.809 8.314 18.238 7.885 18.409 7.285C17.98 7.542 17.466 7.799 16.866 7.885C16.437 7.371 15.752 7.114 15.066 7.114C13.694 7.114 12.58 8.229 12.58 9.6C12.58 9.74154 12.6061 9.8573 12.6295 9.96131C12.6486 10.0462 12.666 10.1232 12.666 10.2C10.609 10.115 8.809 9.086 7.609 7.629C7.352 7.972 7.266 8.4 7.266 8.829C7.266 9.686 7.694 10.372 8.38 10.972C7.952 10.886 7.609 10.8 7.266 10.629C7.266 11.829 8.123 12.772 9.237 13.029C8.98 13.115 8.808 13.115 8.55101 13.115H8.551C8.51532 13.115 8.46483 13.1002 8.40575 13.0829C8.32244 13.0584 8.22205 13.029 8.122 13.029C8.465 13.972 9.322 14.743 10.436 14.743C9.579 15.343 8.464 15.772 7.35 15.772H6.75C7.864 16.457 9.15 16.886 10.521 16.886Z" fill="white"/>
</svg>
